<?xml version="1.0" encoding="UTF-8"?>
<svg width="590px" height="590px" viewBox="0 0 590 590" version="1.1" xmlns="http://www.w3.org/2000/svg" xmlns:xlink="http://www.w3.org/1999/xlink">
    <title>Artboard</title>
    <g id="Artboard" stroke="none" stroke-width="1" fill="none" fill-rule="evenodd">
        <g id="Group" transform="translate(22.311340, 91.027429)">
            <path d="M0,193.431974 L0,218.472571 C121.118856,201.77884 211.957998,193.431974 272.517426,193.431974 C333.076853,193.431974 423.915995,201.77884 545.034851,218.472571 L545.034851,193.431974 L390.997437,138.472571 L151.914185,138.472571 L0,193.431974 Z" id="Path" fill="#FFFFFF"></path>
            <polygon id="Path-2" fill="#FFFFFF" points="161.997437 115.726881 202.348408 2.84217094e-14 338.491822 2.84217094e-14 380.997437 115.726881"></polygon>
            <path d="M159.767156,240.972571 C207.311478,266.157807 243.43672,278.750425 268.142881,278.750425 C292.849043,278.750425 329.145222,266.157807 377.031419,240.972571 C387.066454,266.157807 380.032639,291.700452 355.929973,317.600505 C271.829461,407.972571 305.098203,407.972571 271.829461,407.972571 C238.56072,407.972571 271.829461,407.972571 186.14743,317.600505 C161.591511,291.700452 152.798086,266.157807 159.767156,240.972571 Z" id="Path-3" fill="#890000"></path>
        </g>
    </g>
</svg>