<?xml version="1.0" encoding="UTF-8"?>
<!-- Created with Inkscape (http://www.inkscape.org/) -->
<svg width="453.69" height="546.58" version="1.1" viewBox="0 0 453.6915 546.58165" xmlns="http://www.w3.org/2000/svg" xmlns:cc="http://creativecommons.org/ns#" xmlns:dc="http://purl.org/dc/elements/1.1/" xmlns:rdf="http://www.w3.org/1999/02/22-rdf-syntax-ns#">
 <metadata>
  <rdf:RDF>
   <cc:Work rdf:about="">
    <dc:format>image/svg+xml</dc:format>
    <dc:type rdf:resource="http://purl.org/dc/dcmitype/StillImage"/>
    <dc:title/>
   </cc:Work>
  </rdf:RDF>
 </metadata>
 <path d="m27.697 491.18c-0.35478-0.3103-0.75066-0.5642-0.87973-0.5642-0.27813 0-0.56434-0.6398-0.40132-0.897 0.0598-0.094 0.10861-52.025 0.10967-116.63l2e-3 -116.46h200l0.33737-0.3611c0.18556-0.1987 45.037-52.241 99.67-115.65l99.332-115.29 2.4956 0.08v464.34h-2.6362v-0.3821c0-0.267-0.0548-0.371-0.18198-0.3452-0.10971 0.022-12.363-14.097-30.854-35.552l-30.672-35.589-136.02-0.032c-108.69-0.025-136.06 1e-4 -136.22 0.1256-0.10879 0.086-14.334 16.624-31.613 36.75-17.278 20.126-31.508 36.692-31.621 36.812-0.19452 0.2069-0.24168 0.1878-0.851-0.3453zm99.385-118.57 97.317-113.3-97.461-0.032c-53.604-0.018-97.532-0.01-97.618 0.028-0.12537 0.048-0.15691 22.891-0.15691 113.64v113.58l0.30048-0.311c0.16527-0.1711 44.093-51.294 97.618-113.61zm298.65-115.13c0-141.44-0.0445-227.59-0.1176-227.56-0.22054 0.079-196.1 227.5-196.05 227.63 0.0641 0.1922 195.97 227.52 196.08 227.53 0.0518 0 0.0942-102.42 0.0942-227.6zm-64.148 157.62c0-0.078-132.9-154.33-133.5-154.95l-0.40874-0.4209-66.675 77.615c-36.671 42.688-66.675 77.662-66.675 77.719s60.134 0.104 133.63 0.104c73.497 0 133.63-0.03 133.63-0.067z" fill="#fff" stroke="#fff" stroke-linecap="round" stroke-linejoin="round" stroke-width="50.657" style="paint-order:stroke fill markers"/>
</svg>
